<!-- icon666.com - MILLIONS vector ICONS FREE --><svg version="1.1" id="Capa_1" xmlns="http://www.w3.org/2000/svg" xmlns:xlink="http://www.w3.org/1999/xlink" x="0px" y="0px" viewBox="0 0 512 512" style="enable-background:new 0 0 512 512;" xml:space="preserve"><g><g><path d="M460.18,92.915l-200-92c-2.652-1.22-5.706-1.22-8.358,0l-200,92c-3.548,1.632-5.821,5.179-5.821,9.085v150.48 c0,0.077,0.001,0.153,0.002,0.229c1.063,46.381,4.113,88.161,30.772,129.767c29.681,46.323,85.3,87.188,175.035,128.604 c1.329,0.613,2.76,0.92,4.19,0.92s2.861-0.307,4.19-0.92c89.735-41.416,145.354-82.28,175.035-128.604 c26.66-41.606,29.709-83.386,30.772-129.767c0.001-0.076,0.002-0.152,0.002-0.229V102 C466.001,98.094,463.728,94.547,460.18,92.915z M446.001,252.366c-1.03,44.804-3.732,82.048-27.614,119.32 c-27.082,42.266-78.737,80.23-162.386,119.288c-83.649-39.059-135.304-77.022-162.386-119.288 c-23.882-37.272-26.584-74.516-27.614-119.32V108.407l190-87.4l190,87.4V252.366z"></path></g></g><g><g><path d="M412.18,123.67l-25.476-11.719c-5.017-2.306-10.956-0.111-13.264,4.906c-2.308,5.018-0.112,10.956,4.906,13.264 l19.655,9.041v112.651c-0.785,34.242-1.482,63.82-19.341,92.836c-18.381,29.863-54.369,58.019-112.659,88.004v-40.208 c0-5.522-4.477-10-10-10s-10,4.478-10,10v40.208c-58.29-29.985-94.278-58.141-112.659-88.004 c-17.859-29.016-18.556-58.594-19.341-92.836V139.162l142-65.32l35.732,16.437c5.019,2.309,10.957,0.112,13.264-4.906 c2.308-5.018,0.111-10.956-4.906-13.264L260.18,53.75c-2.652-1.22-5.706-1.22-8.358,0l-152,69.92 c-3.547,1.632-5.821,5.18-5.821,9.085v119.173c0,0.077,0.001,0.153,0.002,0.229c0.818,35.646,1.59,69.316,22.307,102.976 c21.92,35.614,64.911,68.252,135.294,102.711c1.387,0.679,2.892,1.019,4.397,1.019s3.01-0.34,4.397-1.019 c70.383-34.459,113.374-67.097,135.294-102.711c20.717-33.659,21.489-67.329,22.307-102.976c0.001-0.077,0.002-0.153,0.002-0.229 V132.755C418.001,128.85,415.728,125.302,412.18,123.67z"></path></g></g><g><g><path d="M263.071,349.87c-1.86-1.86-4.44-2.931-7.07-2.931s-5.21,1.071-7.07,2.931c-1.86,1.859-2.93,4.439-2.93,7.069 s1.07,5.21,2.93,7.07s4.44,2.93,7.07,2.93s5.21-1.069,7.07-2.93c1.86-1.861,2.93-4.44,2.93-7.07S264.931,351.729,263.071,349.87z"></path></g></g><g><g><path d="M355.876,207.63l-93.373-79.905c-3.743-3.203-9.261-3.203-13.004,0l-93.373,79.905c-3.181,2.722-4.329,7.137-2.878,11.063 c1.451,3.927,5.194,6.534,9.38,6.534h9.603v90.927c0,5.522,4.477,10,10,10h147.54c5.523,0,10-4.478,10-10v-90.927h9.603 c4.186,0,7.929-2.607,9.38-6.534S359.056,210.351,355.876,207.63z M319.771,215.228v90.927h-127.54v-90.927 c0-3.482-1.779-6.548-4.479-8.339l68.249-58.404l68.249,58.405C321.55,208.68,319.771,211.746,319.771,215.228z"></path></g></g><g><g><path d="M299.233,221.089c-3.905-3.905-10.237-3.905-14.142,0l-35.595,35.596l-10.09-10.09c-3.905-3.905-10.237-3.905-14.142,0 c-3.905,3.905-3.906,10.237,0,14.142l17.16,17.161c1.875,1.875,4.419,2.929,7.071,2.929s5.196-1.054,7.071-2.929l42.667-42.667 C303.138,231.326,303.138,224.994,299.233,221.089z"></path></g></g><g><g><path d="M345.209,92.862l-0.37-0.17c-5.018-2.31-10.956-0.116-13.266,4.901c-2.31,5.017-0.116,10.956,4.901,13.266l0.37,0.17 c1.354,0.624,2.776,0.919,4.176,0.919c3.784,0,7.404-2.158,9.09-5.82C352.42,101.111,350.225,95.172,345.209,92.862z"></path></g></g></svg>