<?xml version="1.0" standalone="no"?>
<!DOCTYPE svg PUBLIC "-//W3C//DTD SVG 20010904//EN"
 "http://www.w3.org/TR/2001/REC-SVG-20010904/DTD/svg10.dtd">
<svg version="1.0" xmlns="http://www.w3.org/2000/svg"
 width="1000.000000pt" height="800.000000pt" viewBox="0 0 1000.000000 800.000000"
 preserveAspectRatio="xMidYMid meet">
<metadata>
Created by potrace 1.16, written by Peter Selinger 2001-2019
</metadata>
<g transform="translate(0.000000,800.000000) scale(0.100000,-0.100000)"
fill="#000000" stroke="none">
<path d="M2533 7777 c-48 -40 -367 -300 -708 -577 -341 -277 -753 -612 -915
-744 -162 -132 -349 -284 -415 -337 -318 -257 -300 -241 -297 -285 3 -34 91
-424 261 -1159 27 -115 59 -254 71 -309 l23 -99 111 -52 c61 -28 134 -62 161
-75 71 -32 328 -152 400 -185 33 -16 61 -29 62 -29 3 -2 52 -232 93 -436 23
-113 82 -404 131 -648 49 -243 89 -445 89 -448 0 -7 4189 -2094 4204 -2094 18
0 34 16 176 180 36 41 67 77 70 80 3 3 34 39 70 80 36 41 67 77 71 80 3 3 46
52 96 110 50 58 109 125 132 150 22 25 100 115 173 202 73 86 138 159 145 162
10 4 253 -106 683 -309 64 -30 122 -55 131 -55 8 0 40 30 70 66 30 37 77 94
105 128 27 34 97 117 153 186 l104 125 66 18 c271 75 452 147 625 250 100 58
254 175 290 219 11 13 45 52 77 88 122 140 220 334 280 559 15 54 24 143 34
321 8 135 15 255 15 267 0 13 50 84 123 175 67 84 132 167 143 183 19 27 22
55 33 290 7 143 14 316 17 385 2 69 6 159 9 200 2 41 7 145 10 230 3 85 10
224 16 309 6 96 6 157 0 160 -5 3 -11 17 -12 30 -4 21 -25 32 -169 88 -91 35
-210 81 -265 103 -192 74 -651 252 -725 281 -41 15 -163 63 -270 105 -107 41
-301 116 -430 165 -129 50 -256 99 -281 109 -25 10 -176 69 -335 131 -159 61
-311 120 -339 131 -27 11 -62 24 -77 30 -16 5 -28 13 -28 16 1 14 70 85 76 79
4 -3 9 -26 11 -52 3 -25 10 -45 14 -45 12 0 5 168 -7 180 -5 5 -52 25 -104 44
-52 19 -171 65 -265 101 -93 37 -181 70 -195 75 -14 4 -61 22 -105 40 -74 30
-329 128 -705 270 -85 33 -191 73 -235 90 -44 17 -102 40 -130 50 -27 10 -75
28 -105 40 -182 70 -183 70 -210 53 -14 -9 -58 -43 -98 -76 -83 -67 -71 -66
-212 -14 -52 19 -176 64 -275 100 -99 36 -209 77 -245 90 -36 14 -166 61 -290
106 -278 102 -397 146 -615 227 -290 108 -449 164 -461 164 -7 0 -52 -33 -101
-73z m310 -58 c105 -39 332 -122 502 -184 171 -62 526 -193 790 -290 263 -97
492 -179 507 -182 23 -5 42 6 123 71 l95 76 512 -196 c282 -108 637 -243 788
-301 151 -58 336 -129 410 -158 74 -28 158 -60 185 -70 28 -10 54 -22 60 -27
5 -5 -14 -31 -48 -66 -77 -78 -76 -93 11 -125 60 -23 224 -86 1032 -399 129
-50 267 -103 305 -118 39 -15 219 -84 400 -154 182 -71 375 -145 430 -166 55
-21 206 -80 335 -130 129 -50 261 -101 293 -113 31 -11 57 -25 57 -30 0 -5
-70 -94 -156 -198 l-156 -190 13 -152 c27 -339 -19 -561 -156 -753 -57 -79
-224 -246 -330 -329 -220 -172 -485 -294 -775 -355 -181 -39 -171 -35 -215
-94 -182 -246 -322 -425 -333 -426 -6 0 -180 75 -385 166 -204 92 -398 178
-429 192 -57 25 -58 25 -79 6 -12 -10 -150 -167 -307 -349 -156 -181 -351
-406 -432 -500 -82 -93 -156 -180 -167 -193 l-18 -23 -260 119 c-143 66 -300
138 -350 161 -89 42 -120 45 -120 10 0 -7 67 -45 155 -86 85 -40 198 -93 250
-117 52 -25 116 -54 141 -65 26 -10 50 -25 54 -32 5 -7 14 -85 21 -173 69
-864 86 -1097 82 -1102 -3 -2 -137 62 -299 142 -162 81 -384 190 -494 244
-110 54 -429 211 -710 350 -483 239 -1035 512 -1907 942 -214 105 -388 195
-388 198 0 4 37 29 83 55 90 52 265 174 286 199 21 25 31 19 31 -19 0 -42 24
-58 44 -29 42 59 52 67 72 55 61 -35 380 -181 395 -181 11 0 19 7 19 18 0 27
-41 505 -45 528 -3 15 -57 46 -225 127 -121 59 -224 107 -229 107 -15 0 -17
-17 -9 -128 15 -233 17 -214 -17 -223 -17 -5 -80 -12 -140 -16 -99 -7 -110
-10 -110 -27 0 -14 17 -28 59 -49 32 -16 54 -32 50 -37 -24 -21 -251 -62 -261
-47 -3 5 -36 170 -74 366 l-67 356 29 30 c16 17 29 37 29 43 0 18 -22 4 -55
-36 l-27 -32 30 -163 c73 -387 103 -543 107 -554 5 -16 -34 -38 -46 -26 -9 9
-27 98 -119 572 l-41 214 37 38 c22 22 32 39 24 39 -21 0 -80 -61 -80 -84 0
-15 87 -473 139 -734 9 -46 7 -50 -38 -54 -19 -2 -27 3 -33 22 -4 14 -49 232
-98 485 -50 253 -95 464 -100 469 -6 6 -12 3 -15 -6 -5 -13 119 -674 169 -905
l14 -63 -26 -12 c-37 -19 -38 -35 0 -54 40 -20 48 -31 48 -65 0 -16 -13 -39
-37 -63 -33 -33 -38 -35 -45 -19 -11 28 -260 1275 -255 1279 4 4 322 -143 661
-305 82 -39 150 -71 151 -71 1 0 78 -36 171 -81 93 -44 182 -86 198 -94 36
-16 58 -9 54 18 -3 21 -79 58 -704 351 -404 190 -552 263 -546 272 4 5 106
100 227 210 573 523 751 687 757 698 12 22 -7 34 -142 94 -74 33 -286 126
-470 207 -184 81 -409 180 -500 220 -91 40 -239 105 -330 145 -404 177 -596
263 -602 269 -4 4 261 225 589 491 328 267 663 539 744 605 80 66 223 182 315
257 93 75 291 236 439 357 149 121 273 220 278 221 4 0 94 -32 200 -71z
m-2499 -1954 c42 -19 76 -38 76 -43 0 -4 24 -122 54 -262 30 -140 84 -394 120
-565 104 -487 95 -457 136 -478 40 -20 326 -157 503 -240 64 -31 117 -59 117
-64 0 -4 -24 -29 -54 -55 l-54 -47 -218 100 c-121 55 -259 119 -309 141 -49
22 -96 46 -103 52 -13 12 -48 157 -212 876 -44 195 -94 410 -110 478 -30 123
-33 142 -26 142 2 0 38 -16 80 -35z m433 -190 c169 -75 342 -151 383 -170 41
-18 298 -131 570 -250 272 -120 500 -222 505 -227 7 -6 4 -14 -9 -23 -10 -8
-39 -33 -65 -57 -25 -24 -179 -165 -341 -313 -162 -148 -318 -292 -347 -318
-93 -88 -65 -90 -295 21 -112 54 -254 122 -315 152 -62 29 -113 58 -112 64 0
6 42 47 93 91 87 75 646 568 711 627 21 20 25 27 14 28 -9 0 -63 -42 -120 -92
-150 -134 -659 -582 -694 -612 -27 -24 -31 -24 -37 -9 -4 10 -31 126 -58 258
-28 132 -84 396 -125 587 -72 335 -80 378 -71 378 3 0 144 -61 313 -135z
m8888 -547 c-3 -35 -19 -369 -36 -742 l-30 -679 -93 -116 c-51 -64 -108 -137
-127 -163 -19 -26 -38 -47 -43 -48 -5 0 -6 56 -2 133 4 72 13 272 21 442 8
171 19 335 25 365 13 65 15 270 5 425 l-7 110 139 168 c76 92 141 167 146 167
4 0 5 -28 2 -62z m-349 -1290 c-14 -356 -26 -520 -42 -574 -8 -30 -20 -54 -25
-54 -5 0 -7 26 -4 58 3 31 10 190 15 352 10 267 13 300 32 343 12 26 24 47 26
47 3 0 2 -78 -2 -172z m-162 -24 c9 -3 16 -10 16 -16 0 -5 -31 -44 -69 -87
-82 -94 -72 -41 -102 -559 l-23 -384 -30 6 c-17 4 -34 10 -38 14 -4 4 -3 91 2
192 5 102 12 267 16 366 l6 181 -31 19 c-36 21 -39 34 -11 52 18 11 20 10 20
-18 0 -20 5 -30 15 -30 11 0 15 11 15 42 0 39 5 46 96 135 52 51 97 93 99 93
2 0 10 -3 19 -6z m30 -131 c-2 -32 -14 -201 -24 -377 -11 -175 -23 -322 -26
-327 -3 -5 -18 -2 -34 6 -33 17 -50 19 -50 6 0 -5 16 -15 35 -21 19 -6 37 -15
40 -20 5 -8 -89 -132 -105 -138 -4 -2 -6 23 -4 55 2 32 13 213 25 402 l20 344
56 64 c30 34 59 63 64 63 5 0 6 -26 3 -57z m37 -241 c-15 -321 -14 -402 2
-402 8 0 25 37 42 91 55 171 60 108 7 -86 -40 -147 -65 -215 -113 -310 -144
-281 -356 -475 -703 -644 -159 -77 -476 -194 -490 -180 -7 7 -25 1274 -18
1280 10 10 192 47 196 40 1 -3 -3 -195 -9 -426 -8 -280 -9 -426 -2 -439 16
-33 78 -116 85 -115 4 0 72 31 152 68 133 63 145 71 151 99 3 17 10 218 14
446 l7 416 -26 31 c-14 17 -26 34 -26 38 0 9 45 31 62 31 7 0 8 -122 3 -420
l-7 -420 38 -35 c21 -19 47 -35 58 -35 32 0 118 44 161 81 66 58 95 106 95
157 0 41 2 44 23 38 77 -23 78 -22 137 55 30 40 67 87 82 104 l28 32 20 324
c11 178 23 353 26 389 14 124 16 28 5 -208z m-366 96 c14 -6 25 -16 25 -23 0
-6 -49 -43 -109 -82 l-109 -71 -6 -63 c-3 -35 -10 -221 -16 -414 -6 -192 -15
-353 -19 -358 -4 -4 -15 1 -23 10 -15 16 -16 62 -11 442 l6 423 45 27 c25 14
77 47 116 73 39 25 72 47 73 47 1 1 14 -4 28 -11z m41 -135 c-6 -63 -23 -487
-27 -646 -1 -37 -5 -70 -9 -72 -3 -2 -25 8 -49 23 l-42 27 5 135 c11 263 11
485 1 490 -6 3 -13 -104 -18 -305 l-8 -310 -37 -32 c-42 -37 -37 -55 6 -24 17
12 35 21 41 21 16 0 91 -51 91 -62 0 -29 -168 -153 -185 -137 -5 5 4 281 21
687 l6 143 96 65 c53 35 101 64 105 64 5 0 6 -30 3 -67z m-6356 -46 l185 -92
20 -233 c11 -129 17 -236 13 -239 -5 -2 -32 7 -61 20 -28 14 -105 50 -169 81
-113 52 -139 76 -103 90 8 3 71 -22 139 -55 69 -33 129 -58 133 -56 12 8 -17
350 -31 363 -14 15 -250 124 -266 124 -10 0 -11 -22 -6 -95 7 -91 6 -95 -13
-95 -16 0 -21 8 -25 43 -12 93 -17 237 -9 236 4 0 91 -42 193 -92z m-1 -76
l118 -60 12 -133 c7 -73 14 -145 16 -160 3 -20 0 -28 -10 -28 -19 0 -225 102
-225 112 0 4 34 42 75 85 41 43 75 84 75 92 0 14 -13 14 -136 -5 -40 -6 -41
-5 -48 26 -7 39 -8 130 -1 130 3 0 59 -27 124 -59z m5933 32 c10 -9 18 -21 18
-28 0 -6 -56 -35 -125 -64 -121 -52 -126 -53 -145 -36 -11 10 -20 24 -20 30 0
10 219 113 244 114 5 1 18 -6 28 -16z m32 -395 c-3 -178 -9 -365 -13 -416 l-6
-93 -118 -54 c-66 -30 -121 -55 -123 -55 -6 0 -5 413 3 637 l6 201 116 50 c64
28 122 51 129 51 10 1 12 -60 6 -321z m-295 234 c11 -20 -1 -798 -13 -809 -3
-4 -13 2 -22 13 -13 16 -14 59 -9 324 6 348 14 490 26 490 4 0 13 -8 18 -18z
m-290 -633 c8 -511 7 -628 -4 -644 -17 -25 -296 -339 -305 -343 -12 -5 -20
1199 -8 1221 6 11 64 91 129 176 162 212 170 223 175 218 2 -2 8 -285 13 -628z
m-5500 526 c-45 -52 -86 -95 -90 -95 -5 0 -9 11 -9 25 0 37 -24 31 -78 -18
-83 -76 -284 -217 -311 -217 -4 0 -14 -7 -21 -15 -23 -28 -30 0 -13 53 11 35
14 55 7 62 -6 6 -36 17 -68 25 -32 8 -67 20 -79 27 -21 11 -21 11 -2 19 11 4
67 12 125 19 109 12 282 50 328 72 37 18 34 40 -10 60 -57 27 -54 36 19 43 38
4 102 13 143 20 41 7 90 13 108 14 l33 1 -82 -95z m4357 -19 c55 -24 133 -59
174 -78 41 -19 159 -72 261 -117 l187 -82 6 -222 c13 -514 18 -1067 8 -1067
-6 0 -91 38 -189 84 -98 46 -243 114 -323 151 -80 37 -150 72 -156 78 -7 8
-16 110 -23 272 -7 143 -21 411 -32 595 -19 333 -22 430 -15 430 2 0 48 -20
102 -44z m-112 -518 c16 -293 31 -581 34 -640 3 -82 8 -110 21 -121 9 -7 88
-47 176 -87 88 -40 245 -113 349 -161 103 -49 193 -86 198 -83 7 4 8 227 3
642 -4 349 -8 642 -9 651 -1 17 1 17 76 -8 l48 -16 0 -416 c0 -527 9 -809 25
-809 7 0 36 28 66 63 29 34 90 103 134 152 44 50 94 105 110 124 17 19 37 42
46 52 9 9 63 31 120 49 641 198 1026 512 1195 975 l33 90 1 -69 c0 -78 -25
-187 -46 -199 -8 -4 -25 -29 -38 -55 -14 -26 -48 -82 -78 -124 -215 -311 -582
-554 -1067 -708 l-131 -42 -63 -77 c-35 -42 -123 -149 -196 -239 -112 -137
-137 -163 -155 -158 -12 3 -133 59 -269 126 -137 66 -250 120 -252 120 -3 0
-68 32 -147 70 -78 39 -147 69 -153 66 -10 -4 -89 -96 -520 -611 -88 -104
-162 -192 -165 -195 -3 -3 -37 -43 -75 -90 -38 -47 -74 -90 -80 -96 -5 -6 -22
-25 -38 -43 l-27 -31 -383 191 c-210 106 -728 364 -1152 574 -2258 1121 -2625
1305 -2625 1313 0 5 6 14 13 20 13 10 3 15 1097 -526 349 -173 766 -379 925
-457 160 -78 481 -237 715 -353 1163 -574 1324 -652 1332 -644 4 4 -1 120 -12
258 -11 137 -29 359 -40 494 -11 135 -25 311 -31 393 -7 81 -10 150 -7 153 3
2 24 -3 47 -12 48 -19 46 -12 61 -204 6 -80 22 -284 35 -455 14 -170 30 -378
36 -462 8 -99 16 -154 24 -157 11 -4 108 109 599 694 76 91 161 192 188 224
l50 59 -6 86 c-7 88 -51 848 -63 1068 -5 104 -4 126 11 147 9 14 20 26 24 26
4 0 20 -240 36 -532z m-70 -238 c14 -250 28 -476 30 -501 l5 -46 -126 -149
c-69 -82 -144 -171 -167 -198 -22 -28 -70 -84 -106 -126 -36 -42 -131 -156
-212 -252 -166 -197 -178 -210 -178 -182 0 11 -9 129 -20 264 -33 394 -70 888
-70 919 0 28 45 84 319 396 14 17 95 111 180 210 85 99 173 200 195 225 23 25
57 64 76 85 l35 40 7 -115 c4 -63 18 -320 32 -570z m-3348 -431 c885 -441
1800 -896 2034 -1011 234 -116 446 -221 472 -234 l48 -24 117 138 c65 76 255
302 423 502 168 200 319 379 335 398 l31 34 412 -197 c226 -109 418 -195 425
-192 8 3 50 50 93 104 44 54 87 107 96 118 9 11 61 74 115 140 98 119 99 120
168 143 297 99 544 213 724 334 128 88 355 309 420 411 24 37 46 65 49 63 8
-9 -46 -123 -104 -221 -192 -325 -540 -550 -1069 -691 -62 -16 -96 -31 -108
-46 -196 -245 -384 -468 -392 -464 -5 2 -185 86 -398 186 -214 100 -397 180
-407 178 -9 -2 -69 -62 -131 -133 -143 -164 -471 -541 -608 -699 -57 -67 -123
-143 -146 -169 l-43 -49 -1378 687 c-759 378 -1691 842 -2072 1032 -544 270
-695 350 -702 368 -12 31 -23 95 -17 95 3 0 729 -361 1613 -801z"/>
<path d="M2030 7218 c-344 -286 -833 -695 -1087 -906 -298 -248 -463 -392
-463 -404 0 -10 1 -18 3 -18 3 0 105 -45 457 -202 129 -58 402 -180 605 -271
204 -90 482 -215 618 -276 136 -61 253 -111 258 -111 20 0 139 112 139 131 0
31 -26 22 -86 -31 -32 -28 -63 -49 -68 -46 -11 4 -595 265 -1266 566 -212 94
-431 192 -488 218 -56 25 -101 48 -100 52 3 7 290 247 1318 1104 245 204 447
373 450 376 5 5 282 234 313 259 10 8 19 12 22 9 2 -2 14 -121 25 -263 12
-143 23 -266 26 -274 15 -47 13 30 -6 269 -13 149 -20 273 -17 276 3 4 55 -12
114 -34 183 -69 595 -225 878 -332 149 -56 400 -151 559 -211 159 -60 291
-111 293 -113 2 -2 -24 -30 -58 -63 -43 -42 -60 -65 -56 -77 4 -9 12 -16 18
-16 20 0 173 156 167 171 -3 8 -104 51 -224 96 -121 45 -417 157 -659 248
-723 274 -1046 395 -1054 395 -4 0 -288 -235 -631 -522z"/>
<path d="M3186 7411 c-21 -22 -27 -36 -24 -62 2 -19 8 -33 13 -33 6 1 9 15 7
31 -2 19 4 35 17 47 24 21 -6 31 346 -104 132 -51 278 -106 325 -124 139 -53
145 -56 148 -96 4 -64 13 -100 23 -100 12 0 1 140 -11 154 -5 5 -790 309 -816
316 0 0 -13 -13 -28 -29z"/>
<path d="M2817 7379 c-44 -25 -60 -106 -30 -149 34 -50 -90 1 1093 -446 80
-30 168 -64 195 -74 28 -11 64 -24 80 -30 l30 -12 -24 -19 c-13 -10 -78 -70
-144 -132 -67 -61 -145 -134 -174 -161 -29 -27 -53 -55 -53 -61 0 -23 27 -24
51 -2 273 247 360 332 356 349 -3 10 -2 18 1 18 4 0 171 -62 372 -138 l365
-138 8 -110 c12 -158 29 -179 22 -26 -4 67 -3 122 2 122 4 0 89 -31 188 -69
l180 -68 11 -143 c9 -112 15 -146 28 -156 9 -6 79 -36 156 -65 77 -30 140 -57
140 -61 0 -4 -1289 -1295 -1516 -1518 -3 -2 -9 1 -13 8 -5 9 -717 319 -1284
560 -14 6 15 37 151 167 92 88 217 205 277 260 61 55 137 125 170 155 33 30
82 76 110 101 147 134 206 188 260 238 33 31 83 76 110 101 28 25 104 95 170
155 434 400 388 350 383 407 -6 57 -27 84 -78 99 -43 13 -73 1 -130 -52 -85
-78 -277 -256 -298 -277 -13 -13 -29 -21 -36 -18 -6 2 -40 16 -76 31 -36 15
-87 37 -115 49 -152 69 -162 71 -200 53 -61 -29 -95 -116 -62 -160 6 -9 69
-44 140 -77 70 -33 127 -66 126 -73 -1 -6 -38 -45 -83 -86 -44 -41 -124 -116
-176 -165 -90 -85 -305 -288 -482 -454 l-77 -72 -78 38 c-320 160 -327 161
-382 72 -25 -42 -27 -77 -5 -108 8 -13 74 -52 145 -87 71 -36 129 -69 129 -74
0 -5 -53 -57 -117 -117 -322 -298 -338 -315 -348 -357 -15 -58 37 -135 113
-166 23 -10 33 -21 37 -45 5 -29 83 -528 106 -683 6 -40 15 -73 20 -73 14 0
13 10 -47 397 -31 201 -54 367 -51 369 10 10 58 -21 62 -40 2 -12 14 -82 25
-156 69 -466 93 -606 101 -615 5 -5 9 2 9 19 0 23 -80 567 -105 714 -4 23 -2
32 8 32 41 0 46 -18 102 -370 59 -369 60 -370 73 -370 5 0 50 37 101 81 70 63
91 88 91 108 0 14 -12 108 -26 209 -14 101 -23 186 -21 188 2 3 18 -3 34 -12
29 -17 29 -18 51 -198 12 -100 22 -192 22 -206 0 -18 -24 -47 -90 -109 -50
-46 -90 -90 -90 -97 0 -7 -54 -65 -120 -130 -70 -68 -119 -125 -118 -133 7
-34 43 -21 103 35 33 31 86 81 117 110 83 79 100 77 331 -31 100 -47 191 -84
202 -83 12 2 20 11 20 23 0 22 -43 45 -275 151 -101 46 -135 57 -177 57 -29 0
-53 2 -53 6 0 3 41 44 91 91 l90 85 -20 165 c-12 91 -23 180 -27 198 -4 26 -2
33 10 30 31 -7 516 -242 516 -250 0 -5 -41 -48 -90 -95 -108 -102 -131 -133
-132 -173 -1 -43 40 -82 128 -120 132 -58 146 -10 16 59 -52 28 -82 50 -82 60
0 9 58 75 130 145 101 101 127 132 121 145 -5 9 -85 52 -178 95 -92 44 -244
117 -338 162 -93 45 -195 93 -225 107 -30 14 -148 70 -261 125 -275 133 -287
149 -185 247 70 68 329 311 389 365 32 29 47 50 45 64 -2 15 -42 40 -153 97
-82 43 -154 84 -159 92 -11 18 17 67 38 67 8 0 97 -40 197 -90 101 -49 185
-90 189 -90 7 0 43 32 155 139 50 47 133 126 185 175 52 49 131 124 175 165
44 42 150 143 236 224 126 118 156 152 152 168 -3 11 -16 25 -29 29 -13 5 -56
25 -96 43 -40 19 -96 44 -125 57 -56 24 -69 41 -53 70 22 42 36 39 227 -41
108 -46 190 -76 198 -71 14 8 68 56 249 226 141 132 155 141 184 120 27 -18
28 -44 5 -70 -10 -11 -74 -71 -143 -134 -69 -63 -157 -144 -195 -180 -86 -79
-148 -136 -285 -260 -58 -52 -132 -120 -165 -151 -33 -30 -87 -80 -120 -110
-33 -30 -62 -56 -65 -59 -17 -17 -150 -139 -235 -215 -55 -49 -172 -160 -260
-246 -88 -85 -209 -202 -268 -260 -146 -140 -164 -179 -109 -232 15 -15 122
-70 237 -123 116 -52 242 -111 280 -129 39 -18 131 -61 205 -95 74 -34 164
-76 200 -92 36 -17 124 -57 195 -90 157 -72 186 -86 390 -181 260 -122 255
-120 292 -85 21 20 26 20 63 8 70 -23 70 -33 4 -104 -32 -35 -65 -64 -72 -65
-15 -1 -39 9 -405 173 -131 58 -245 106 -254 106 -15 0 -175 -143 -201 -181
-20 -29 -7 -65 30 -83 41 -21 64 -20 73 1 4 12 -2 25 -21 39 l-27 22 44 38
c23 22 55 51 70 67 42 44 54 36 56 -37 l2 -64 -117 -103 c-64 -57 -122 -108
-128 -114 -6 -5 -48 -44 -94 -85 -197 -176 -182 -158 -178 -217 2 -29 2 -53 2
-53 -1 0 -81 39 -179 86 -163 80 -178 85 -193 70 -15 -14 -15 -18 -1 -31 8 -8
84 -49 169 -91 114 -55 162 -74 181 -70 26 5 26 4 33 -62 3 -37 6 -86 6 -110
0 -79 -37 -56 535 -332 77 -37 200 -97 274 -134 l134 -68 108 114 c60 62 108
121 109 131 0 9 3 17 8 17 4 0 96 -41 205 -92 123 -58 197 -98 197 -107 0 -8
-22 -38 -50 -67 -50 -53 -58 -84 -20 -84 19 0 118 97 134 130 14 30 -1 64 -36
85 -18 11 -82 43 -143 71 -350 163 -365 171 -365 198 0 34 9 55 30 66 19 10
43 1 220 -83 41 -20 165 -78 275 -130 147 -69 201 -99 203 -113 1 -12 -37 -65
-98 -138 -80 -97 -98 -124 -94 -143 7 -25 -5 -20 -270 101 -43 20 -85 36 -94
36 -13 0 -14 -16 -8 -121 4 -66 10 -127 12 -134 4 -8 -24 -33 -73 -66 -43 -29
-106 -74 -139 -101 -34 -26 -65 -48 -68 -48 -3 0 -6 15 -6 34 0 50 -19 56 -49
17 -52 -67 -200 -237 -235 -270 -61 -59 -46 -75 49 -55 74 15 374 54 420 54
84 0 86 29 3 71 -71 36 -69 38 40 64 66 16 74 16 85 2 11 -14 101 -58 362
-176 69 -31 93 -37 101 -28 8 9 6 68 -7 222 -33 370 -26 333 -65 350 -31 13
-47 35 -24 35 14 0 186 208 212 258 21 39 22 44 8 68 -8 14 -26 32 -40 40 -54
31 -660 314 -684 320 -68 17 -126 -47 -126 -140 l0 -56 45 -22 c25 -12 45 -24
45 -27 -1 -12 -149 -166 -154 -160 -3 2 -10 68 -16 144 l-11 139 153 147 c84
81 155 146 157 144 2 -2 -2 -18 -8 -36 -15 -42 -14 -91 2 -111 6 -9 57 -37
112 -61 55 -25 165 -75 245 -112 80 -37 170 -79 200 -93 30 -13 145 -66 256
-117 111 -51 211 -96 222 -99 17 -6 34 7 86 61 35 37 67 66 70 63 2 -3 9 -61
15 -130 6 -69 13 -139 16 -155 4 -24 -2 -39 -24 -65 l-28 -34 -84 39 c-46 21
-148 69 -226 106 -184 87 -210 96 -225 81 -8 -8 -9 -15 -2 -22 14 -14 522
-250 538 -250 17 0 23 6 281 295 104 116 221 246 260 290 245 271 305 342 305
356 0 11 -34 31 -105 63 -116 51 -145 56 -145 27 0 -14 22 -28 90 -56 50 -21
92 -41 94 -44 3 -5 -103 -126 -418 -476 -40 -44 -97 -107 -126 -140 -30 -33
-57 -60 -60 -60 -3 0 -10 60 -17 134 -12 129 -16 151 -29 138 -9 -9 17 -271
28 -278 7 -4 -7 -28 -32 -58 -24 -28 -45 -49 -48 -46 -3 3 -11 67 -19 142 -7
76 -14 147 -16 159 -1 14 32 57 109 140 61 65 135 146 164 179 30 33 79 87
110 120 31 33 110 119 175 190 66 72 124 131 131 133 6 2 166 -63 355 -144
189 -80 422 -179 518 -220 96 -41 180 -74 186 -74 7 0 37 28 66 61 30 34 62
71 72 83 11 12 40 45 65 75 26 30 52 59 57 65 6 6 36 41 68 78 49 57 63 67
100 73 305 46 625 162 834 301 99 66 237 194 305 284 68 89 143 247 164 345
23 110 21 292 -4 415 -11 52 -23 102 -26 110 -6 13 68 113 131 178 39 40 64
83 61 104 -4 30 -75 78 -126 85 -47 6 -35 16 -200 -162 -50 -55 -92 -107 -92
-116 0 -8 12 -83 26 -165 48 -280 32 -444 -57 -594 -161 -271 -391 -406 -934
-550 -104 -27 -206 -54 -226 -60 -21 -6 -52 -28 -75 -52 -34 -38 -176 -201
-230 -265 -10 -13 -24 -23 -31 -23 -11 0 -463 190 -703 295 -41 18 -137 59
-213 91 l-138 57 -152 -151 c-84 -84 -156 -152 -161 -152 -7 0 -94 38 -456
200 -58 26 -132 59 -165 75 -33 15 -100 45 -150 67 -335 150 -491 221 -500
229 -6 6 4 23 27 46 l36 36 229 -101 c125 -55 379 -166 563 -247 429 -189 471
-207 487 -201 28 11 10 34 -44 59 -32 14 -281 123 -553 242 -665 290 -640 279
-640 290 0 6 8 18 18 26 21 19 181 185 482 499 124 129 284 296 355 370 72 74
189 196 260 270 162 169 331 343 509 528 l138 143 -4 51 c-7 65 -48 108 -104
108 -42 0 0 40 -544 -520 -369 -379 -614 -631 -956 -980 -111 -113 -243 -249
-294 -302 -83 -88 -118 -116 -108 -89 3 10 19 27 643 666 220 226 492 504 605
620 113 115 287 293 387 395 100 102 225 230 277 285 52 55 98 97 101 93 4 -4
24 -203 45 -443 24 -284 42 -441 50 -448 14 -14 14 -22 -35 533 -17 201 -30
368 -28 371 1 4 45 -9 95 -28 166 -62 286 -108 738 -281 245 -93 765 -292
1155 -441 391 -150 726 -278 745 -285 19 -7 36 -18 37 -23 3 -7 -135 -178
-244 -305 -13 -15 -13 -23 1 -65 29 -86 48 -251 42 -345 -24 -322 -191 -586
-506 -796 -190 -126 -471 -236 -735 -287 -128 -25 -143 -30 -170 -59 -42 -44
-86 -95 -113 -131 -13 -16 -38 -46 -56 -65 -17 -19 -64 -74 -105 -123 -40 -48
-78 -87 -83 -87 -9 0 -236 97 -807 344 -134 58 -250 106 -257 106 -20 0 -28
-21 -13 -35 8 -7 73 -38 144 -68 72 -30 231 -99 355 -152 522 -227 585 -253
597 -248 7 3 68 71 136 151 69 81 153 180 188 221 l64 74 142 28 c390 78 725
242 948 463 177 175 268 343 306 560 16 97 6 320 -20 415 l-20 74 140 166 c76
91 139 171 139 178 0 16 -17 25 -161 79 -180 68 -378 143 -689 262 -245 94
-1254 480 -1365 522 -174 66 -275 105 -453 173 -94 37 -180 67 -190 67 -10 0
-97 -80 -198 -182 -234 -238 -586 -597 -599 -612 -9 -10 -87 -90 -674 -691
-372 -380 -565 -579 -601 -618 l-35 -38 24 -20 25 -20 -37 -36 -36 -36 -111
48 c-61 27 -114 53 -117 58 -3 5 11 26 32 47 34 35 39 37 67 26 l30 -11 1086
1091 c598 601 1107 1112 1132 1138 53 55 50 60 -55 99 -38 14 -230 87 -425
162 -966 371 -1241 475 -1257 475 -22 0 -368 -294 -368 -312 0 -38 45 -11 190
114 86 73 160 134 164 136 9 3 13 -28 32 -258 11 -139 16 -167 25 -158 3 3 -2
99 -11 213 -9 113 -15 208 -13 210 1 1 84 -28 183 -66 99 -38 209 -80 245 -94
95 -36 207 -79 570 -218 179 -69 392 -150 473 -181 82 -31 165 -63 185 -72
l36 -15 -909 -909 c-501 -501 -914 -910 -919 -910 -5 0 31 40 80 89 413 410
1244 1251 1258 1272 27 42 36 85 25 123 -13 47 -85 108 -160 136 -43 17 -59
27 -54 37 3 8 0 66 -6 129 -5 63 -8 118 -5 123 6 9 261 -80 277 -96 7 -7 29
-192 29 -240 0 -7 5 -13 11 -13 9 0 10 27 5 98 -11 148 -16 173 -40 183 -90
37 -302 107 -307 101 -4 -4 -2 -70 5 -147 7 -77 12 -141 11 -143 -1 -1 -12 1
-24 6 -21 7 -22 15 -28 135 -2 70 -8 139 -12 154 -6 23 -31 35 -235 115 -134
53 -232 86 -237 81 -5 -5 -4 -65 3 -146 6 -75 9 -139 6 -142 -3 -3 -12 -3 -20
0 -11 4 -16 22 -17 59 0 29 -5 95 -11 146 -10 100 -8 105 37 131 27 16 31 15
123 -21 52 -20 205 -79 340 -130 135 -51 286 -109 335 -129 l90 -36 15 -163
c9 -93 19 -162 25 -162 11 1 11 16 -5 205 -6 72 -14 133 -18 137 -4 4 -83 36
-177 72 -93 35 -289 110 -434 165 -145 56 -269 101 -275 101 -6 0 -28 -15 -49
-33 l-39 -32 12 -143 c7 -79 10 -145 8 -146 -3 -3 -360 130 -548 203 -41 16
-226 87 -410 156 -184 70 -441 168 -570 217 -226 87 -285 109 -703 267 -186
71 -226 80 -260 60z m169 -90 c60 -23 136 -52 169 -64 33 -12 119 -45 190 -72
72 -28 202 -77 290 -111 88 -33 225 -85 305 -116 80 -30 384 -145 675 -256
292 -111 575 -219 630 -240 55 -21 240 -91 410 -155 335 -126 387 -151 409
-193 13 -25 12 -32 -2 -65 -11 -23 -344 -365 -922 -948 -498 -501 -914 -926
-925 -945 -15 -25 -17 -38 -10 -51 6 -10 61 -43 122 -73 62 -30 115 -58 118
-61 3 -4 -9 -21 -26 -39 -25 -24 -38 -31 -58 -27 -14 3 -102 42 -195 87 l-170
81 75 75 c41 42 471 473 956 958 608 607 884 890 889 909 3 15 3 38 0 52 -12
46 -20 50 -696 305 -249 94 -457 173 -545 207 -49 19 -160 61 -245 93 -1138
429 -1566 593 -1582 608 -30 26 -17 82 18 82 6 0 60 -19 120 -41z m2624 -656
c107 -42 196 -77 196 -77 4 -2 22 -271 18 -275 -2 -2 -86 27 -186 65 -101 37
-184 68 -185 69 -1 0 -7 60 -14 133 -7 72 -16 132 -22 132 -6 0 -6 -37 -2 -97
11 -151 11 -148 -5 -148 -9 0 -15 10 -16 25 0 14 -4 79 -9 144 -7 114 -7 119
11 112 11 -4 107 -41 214 -83z m-224 -421 c7 -4 15 -52 19 -108 4 -56 10 -106
14 -112 4 -6 72 -39 151 -72 80 -34 147 -63 149 -65 2 -2 -4 -11 -13 -21 -12
-11 -20 -13 -29 -6 -7 6 -76 36 -153 67 l-142 56 -6 62 c-21 217 -20 219 10
199z m424 -164 c25 -13 46 -30 47 -38 2 -8 -24 -44 -57 -79 l-59 -63 -43 20
c-24 11 -88 39 -143 62 -55 23 -105 48 -111 56 -11 13 -26 172 -18 185 4 7
315 -109 384 -143z m722 -125 c32 -28 21 -54 -60 -137 -42 -45 -183 -191 -312
-326 -235 -245 -372 -387 -635 -660 -77 -80 -185 -192 -241 -250 -132 -138
-373 -388 -503 -522 -58 -60 -111 -108 -118 -108 -23 0 -93 32 -93 42 0 6 103
114 228 242 125 127 300 305 388 396 88 91 259 266 380 390 121 124 377 386
568 582 191 196 353 359 359 362 19 7 19 7 39 -11z m2717 -848 c12 -12 9 -21
-25 -62 -21 -26 -41 -50 -44 -53 -3 -3 -30 -34 -59 -69 -42 -51 -52 -70 -48
-90 3 -14 15 -69 26 -121 28 -129 29 -316 2 -423 -55 -214 -213 -419 -442
-575 -76 -51 -257 -139 -374 -180 -109 -39 -331 -94 -433 -107 -60 -8 -68 -14
-168 -130 -38 -44 -73 -85 -79 -91 -5 -6 -48 -54 -94 -108 -46 -53 -87 -96
-91 -96 -3 0 -58 22 -121 49 -62 27 -233 99 -379 161 -146 61 -327 138 -402
171 -76 32 -144 59 -152 59 -12 0 -173 -169 -396 -415 -25 -27 -77 -83 -115
-125 -39 -41 -122 -131 -185 -200 -62 -69 -124 -136 -136 -149 l-22 -23 -243
112 c-259 120 -272 125 -546 251 -98 45 -184 87 -192 95 -12 11 -12 20 -2 54
19 65 43 69 132 25 40 -21 130 -63 199 -95 69 -32 235 -110 370 -174 134 -64
253 -116 265 -115 13 0 73 59 170 166 83 91 173 190 200 221 28 30 54 61 58
68 10 17 0 54 -14 54 -5 0 -71 29 -147 64 -175 81 -427 197 -817 376 -170 78
-316 147 -323 154 -10 9 -5 19 23 46 34 33 36 34 71 21 35 -13 145 -62 579
-258 116 -53 248 -112 295 -133 47 -21 161 -72 254 -114 93 -42 174 -76 180
-76 6 0 74 63 151 141 77 77 147 144 157 150 12 6 90 -23 300 -112 616 -263
753 -320 769 -317 9 2 81 77 160 168 78 91 147 168 153 172 5 3 64 21 130 38
328 85 529 151 656 215 196 99 341 234 438 407 95 166 108 339 51 657 -11 63
-17 117 -12 120 4 3 53 55 107 114 89 96 102 108 125 102 14 -3 32 -13 40 -20z
m-6415 -249 c6 -8 297 -137 646 -286 349 -150 637 -274 639 -276 3 -2 -34 -44
-82 -92 -88 -90 -107 -125 -88 -160 10 -19 109 -71 294 -155 42 -20 77 -40 77
-46 0 -6 -44 10 -97 35 -54 26 -125 58 -158 74 -114 52 -151 69 -335 154 -102
48 -197 92 -212 99 -16 6 -28 15 -28 19 0 4 25 28 55 55 30 26 55 51 55 56 0
20 -31 1 -80 -48 -30 -30 -60 -55 -67 -55 -9 0 -13 20 -13 73 0 79 -7 117 -22
117 -5 0 -6 -34 -2 -85 4 -47 4 -85 1 -85 -3 0 -43 18 -89 39 -46 22 -154 73
-241 113 l-159 73 -5 75 c-4 68 -15 102 -28 89 -2 -3 -1 -36 3 -73 5 -37 5
-69 2 -71 -4 -3 -63 21 -131 53 -157 73 -169 80 -169 95 0 10 209 227 219 227
2 0 9 -6 15 -14z m-77 -555 l98 -49 28 -213 c23 -174 26 -214 15 -224 -53 -51
-142 -125 -148 -125 -4 0 -10 17 -14 38 -56 343 -96 598 -96 609 0 20 11 17
117 -36z m1184 -557 c322 -143 418 -184 431 -184 7 0 53 40 103 89 l90 89 180
-82 c316 -146 917 -423 1008 -465 48 -22 87 -46 87 -54 0 -7 -18 -30 -39 -51
-27 -27 -44 -36 -58 -32 -14 4 -31 -6 -62 -38 -35 -36 -43 -50 -39 -71 5 -22
-7 -40 -70 -108 -41 -45 -80 -83 -87 -85 -7 -2 -143 58 -301 133 -159 75 -319
150 -356 167 -76 35 -70 23 -88 183 -17 145 -13 137 -84 168 l-64 28 -12 128
c-11 118 -21 163 -34 151 -4 -5 8 -147 19 -222 3 -24 1 -38 -5 -38 -6 0 -175
72 -376 160 -201 88 -370 160 -376 160 -6 0 -20 -7 -30 -17 -10 -9 -20 -14
-22 -12 -6 7 -18 89 -13 89 3 0 92 -39 198 -86z m56 -118 c92 -41 227 -100
298 -131 273 -119 335 -148 335 -154 0 -4 -21 -27 -47 -50 -27 -23 -139 -132
-250 -243 -111 -110 -205 -198 -210 -195 -12 7 -216 103 -535 252 -152 72
-277 135 -278 141 0 7 17 27 38 45 48 42 153 135 322 287 74 67 140 122 147
122 6 0 87 -33 180 -74z m-297 -640 l405 -192 6 -45 c4 -24 10 -90 14 -146 6
-86 5 -103 -7 -103 -8 0 -79 32 -159 71 -79 40 -261 129 -405 199 l-261 127
-6 99 c-9 130 -9 184 1 183 4 0 189 -87 412 -193z m1018 -737 c97 -44 181 -84
185 -88 9 -9 53 -469 45 -476 -7 -7 -363 159 -366 170 -1 6 15 11 36 13 29 2
62 -9 142 -47 115 -56 130 -59 130 -33 0 30 -29 335 -32 338 -5 4 -248 113
-269 119 -17 6 -19 1 -19 -40 0 -32 -5 -47 -15 -52 -9 -3 -17 -4 -19 -2 -10
11 -15 179 -6 179 6 0 90 -36 188 -81z m75 -111 c31 -14 49 -28 52 -42 8 -42
14 -143 9 -149 -3 -3 -33 7 -67 23 -34 15 -80 33 -102 40 -22 7 -43 15 -47 19
-4 3 -1 29 7 56 7 28 16 62 19 78 l6 27 38 -16 c20 -9 58 -25 85 -36z m-189
-45 c-4 -16 -11 -36 -15 -45 -22 -42 -12 -53 73 -78 45 -14 83 -30 85 -36 2
-7 -27 -13 -83 -18 -170 -13 -409 -75 -409 -106 0 -8 15 -23 34 -32 31 -16 61
-38 51 -38 -3 0 -75 -9 -160 -20 -211 -27 -202 -28 -154 23 22 23 60 66 83 95
24 28 47 49 52 46 5 -3 7 -9 4 -13 -2 -5 1 -16 8 -25 12 -16 17 -14 62 26 104
92 331 247 363 248 8 0 10 -8 6 -27z"/>
<path d="M2734 4729 c-3 -6 -2 -15 2 -19 9 -8 312 -144 938 -419 164 -72 307
-131 317 -131 21 0 25 23 7 37 -7 5 -40 21 -73 35 -33 14 -199 88 -370 163
-574 254 -786 345 -800 345 -7 0 -17 -5 -21 -11z"/>
<path d="M2719 7093 c-52 -31 -119 -76 -150 -100 -30 -23 -58 -43 -62 -43 -4
0 -7 11 -7 25 0 39 -23 30 -61 -22 -18 -27 -67 -83 -108 -125 -53 -57 -69 -79
-59 -83 9 -4 55 1 104 9 49 8 136 20 194 26 58 6 109 15 114 20 5 5 -11 18
-38 31 -25 13 -46 26 -46 31 0 14 138 43 280 58 58 6 109 16 114 21 10 9 -94
61 -148 75 -32 8 -40 18 -28 41 5 10 12 35 16 56 9 51 -1 49 -115 -20z m76
-10 c-4 -10 -9 -32 -12 -49 -5 -31 -4 -32 45 -44 28 -6 59 -18 69 -25 17 -13
16 -14 -13 -15 -46 0 -243 -37 -296 -56 -55 -18 -61 -36 -18 -54 37 -16 39
-30 3 -30 -16 0 -73 -7 -127 -15 -55 -8 -101 -13 -104 -11 -4 5 107 139 120
144 4 2 8 -6 8 -17 0 -30 19 -26 60 13 44 43 239 176 258 176 9 0 12 -6 7 -17z"/>
<path d="M3189 7006 c-4 -5 5 -180 19 -350 l7 -88 230 -89 c316 -123 365 -140
365 -129 0 13 -28 26 -265 115 -110 42 -225 86 -255 98 l-55 23 -14 212 c-12
191 -17 222 -32 208z"/>
<path d="M3243 6913 c4 -49 10 -134 13 -191 6 -85 10 -105 25 -113 54 -28 373
-139 378 -131 10 16 -9 356 -21 367 -7 7 -8 -43 -3 -167 3 -98 5 -178 2 -178
-11 0 -333 123 -343 131 -6 5 -14 64 -18 137 -9 171 -17 232 -29 232 -6 0 -8
-31 -4 -87z"/>
<path d="M2880 6632 c0 -10 5 -34 11 -51 7 -19 8 -36 3 -41 -5 -5 -64 -14
-131 -21 -68 -6 -123 -16 -123 -20 0 -10 218 -79 345 -109 119 -28 125 -30
125 -39 0 -4 -12 -12 -27 -17 l-28 -10 23 -13 c26 -14 310 -38 337 -28 14 6 5
20 -54 82 -39 41 -71 80 -71 86 0 6 -6 9 -12 7 -7 -3 -13 -13 -13 -24 0 -12
-6 -18 -15 -16 -19 4 -136 77 -255 157 -122 83 -115 79 -115 57z m124 -90
c136 -93 275 -172 291 -166 18 7 75 -41 75 -62 0 -13 -37 -12 -170 3 -51 6
-53 7 -27 17 54 20 47 23 -173 76 -174 43 -261 70 -256 79 3 4 38 11 78 14
102 8 111 12 103 53 -3 19 -3 34 1 34 4 0 39 -22 78 -48z"/>
<path d="M4102 6429 c-100 -94 -182 -175 -182 -179 0 -4 6 -13 14 -19 12 -10
48 19 201 164 102 98 184 182 182 189 -10 30 -47 4 -215 -155z"/>
<path d="M2769 6373 l0 -48 -176 -160 c-97 -88 -237 -216 -312 -285 -75 -69
-158 -144 -183 -167 -53 -48 -64 -63 -46 -63 7 0 36 22 63 48 28 26 100 92
160 147 61 55 133 120 160 146 47 43 280 256 335 306 l25 22 255 -97 c140 -54
297 -114 348 -132 51 -19 91 -38 90 -42 -2 -4 -82 -77 -178 -164 -96 -86 -197
-178 -225 -203 -27 -26 -114 -105 -192 -175 -136 -123 -156 -147 -133 -161 14
-9 26 1 257 210 115 105 289 262 386 349 97 87 177 165 177 172 0 22 -20 26
-45 10 -22 -15 -29 -14 -102 13 -43 16 -89 34 -103 40 -14 6 -133 51 -265 102
-132 50 -248 95 -257 100 -11 6 -18 21 -18 39 0 16 -4 32 -10 35 -6 4 -10 -13
-11 -42z"/>
<path d="M4390 6273 c0 -6 27 -39 61 -74 34 -35 75 -83 92 -106 30 -43 47 -47
47 -12 0 26 6 25 64 -20 77 -59 219 -142 227 -134 5 5 4 28 -2 52 -5 24 -6 47
-2 51 4 3 35 17 68 29 33 13 66 30 74 37 17 16 2 20 -104 29 -87 8 -217 34
-229 45 -5 5 6 16 28 26 45 22 47 44 4 44 -31 0 -193 20 -285 36 -26 4 -43 3
-43 -3z m198 -44 c50 -6 92 -15 92 -19 0 -4 -12 -12 -26 -19 -14 -6 -24 -17
-22 -24 5 -14 110 -42 223 -58 44 -6 84 -15 88 -19 4 -4 -17 -15 -48 -24 -57
-18 -62 -26 -45 -70 7 -20 6 -26 -3 -26 -20 0 -167 94 -219 139 -51 45 -58 48
-58 26 0 -8 -4 -15 -9 -15 -9 0 -111 115 -111 125 0 4 10 5 23 2 12 -3 64 -11
115 -18z"/>
<path d="M6724 6048 c3 -46 17 -211 31 -368 14 -157 28 -322 31 -367 l7 -83
-29 0 c-48 0 -212 29 -247 44 l-32 13 38 18 c59 29 47 42 -45 50 -46 4 -125
13 -177 21 -51 8 -96 13 -98 10 -3 -3 23 -36 57 -73 34 -37 76 -87 93 -110 35
-49 47 -54 47 -18 0 31 11 31 47 2 86 -72 238 -163 248 -148 3 6 1 29 -5 52
-6 23 -8 45 -3 49 12 10 104 43 108 38 2 -2 11 -91 20 -198 16 -190 32 -291
34 -210 1 19 -6 120 -15 224 -13 142 -14 193 -6 207 9 14 9 20 -2 26 -14 8
-21 78 -73 706 -9 108 -21 197 -26 197 -6 0 -7 -32 -3 -82z m-371 -702 c122
-15 137 -18 137 -25 0 -4 -11 -13 -25 -19 -37 -17 -31 -28 23 -46 50 -17 209
-46 248 -46 42 0 26 -18 -31 -36 -56 -18 -64 -29 -45 -65 6 -11 8 -24 5 -29
-7 -12 -117 55 -207 127 -37 29 -69 53 -72 53 -4 0 -6 -7 -6 -15 0 -8 -3 -15
-8 -15 -9 0 -112 115 -112 125 0 4 10 5 23 2 12 -3 43 -8 70 -11z"/>
<path d="M3617 5983 c-39 -37 -135 -126 -212 -198 -363 -338 -500 -471 -503
-487 -8 -43 42 -10 178 119 80 75 254 237 388 361 141 131 242 233 242 243 0
37 -22 28 -93 -38z"/>
<path d="M4970 6004 c2 -110 28 -356 39 -363 30 -19 342 -133 348 -127 10 10
1 15 -120 61 -64 25 -140 56 -170 69 l-54 23 -13 179 c-8 99 -14 182 -15 186
0 3 -3 10 -7 14 -5 4 -8 -15 -8 -42z"/>
<path d="M6915 5983 c5 -64 69 -987 82 -1196 4 -64 10 -96 17 -94 6 2 10 17 8
33 -3 34 -46 664 -67 979 -20 296 -25 345 -36 345 -6 0 -8 -26 -4 -67z"/>
<path d="M1894 5704 c21 -86 22 -82 -25 -89 -24 -3 -81 -9 -127 -13 -45 -4
-83 -11 -85 -17 -2 -11 183 -71 346 -111 64 -16 117 -32 117 -37 0 -4 -12 -12
-27 -18 -15 -6 -23 -13 -17 -19 23 -22 364 -43 364 -22 0 5 -19 26 -43 48 -23
21 -59 59 -79 84 -36 44 -37 44 -38 18 0 -16 -4 -28 -10 -28 -12 0 -116 64
-249 152 -131 88 -136 90 -127 52z m123 -77 c120 -83 255 -161 279 -162 25 -2
84 -48 84 -66 0 -10 -60 -10 -207 1 -12 1 1 19 17 23 44 11 13 26 -127 61
-214 52 -303 77 -303 86 0 9 51 20 96 20 18 0 45 5 59 10 24 9 26 14 21 45 -4
19 -5 35 -2 35 3 0 41 -24 83 -53z"/>
<path d="M7616 5694 l-40 -34 3 -398 c2 -306 5 -400 15 -410 12 -12 187 -83
775 -317 164 -65 175 -68 200 -54 23 13 27 23 32 84 10 110 10 335 0 335 -5 0
-12 -85 -16 -190 -6 -161 -10 -192 -25 -205 -16 -14 -54 -1 -482 170 l-465
186 -6 112 c-4 62 -7 238 -7 393 l0 280 29 28 c21 20 37 27 53 23 13 -2 226
-83 473 -179 l450 -174 -1 -34 c-1 -19 -2 -74 -3 -122 l-1 -88 -49 0 c-54 0
-70 10 -46 30 11 9 18 10 29 1 19 -16 33 147 14 164 -14 13 -328 129 -333 123
-3 -3 -8 -225 -6 -255 1 -7 6 -13 11 -13 6 0 10 47 10 121 0 120 0 120 23 113
12 -3 78 -27 147 -53 l125 -46 3 -55 3 -56 -58 -12 c-32 -6 -108 -17 -168 -23
-144 -14 -147 -15 -114 -43 19 -16 24 -27 18 -37 -5 -8 -9 -98 -9 -200 0 -148
3 -189 14 -198 23 -19 310 -130 318 -123 13 13 12 286 0 290 -9 3 -12 -26 -12
-102 0 -61 -4 -106 -10 -106 -5 0 -62 20 -126 45 -64 25 -119 43 -122 40 -9
-9 1 -14 129 -64 75 -29 124 -54 124 -62 0 -18 1 -19 -151 41 -89 34 -133 56
-135 68 -2 9 -2 99 1 200 l5 183 105 -72 c58 -40 123 -87 144 -106 51 -42 66
-31 41 32 -9 25 -15 49 -12 52 10 9 129 -60 240 -139 60 -43 113 -78 118 -78
18 0 8 33 -33 113 l-42 81 28 20 c64 47 71 54 61 65 -9 9 -114 34 -236 55
l-35 6 7 58 c12 97 10 199 -3 205 -81 33 -952 367 -957 367 -3 -1 -24 -16 -45
-36z m844 -572 c0 -4 -5 -13 -11 -19 -23 -23 3 -33 80 -33 43 0 118 -7 167
-15 165 -28 168 -30 109 -58 -42 -20 -53 -41 -32 -65 8 -9 24 -36 36 -59 17
-35 19 -43 7 -43 -8 0 -18 5 -21 10 -12 19 -155 111 -236 151 -91 45 -108 42
-84 -14 20 -49 6 -48 -59 2 -28 21 -77 55 -109 75 -32 21 -55 41 -52 46 4 6
27 10 53 11 26 0 65 4 87 8 55 12 65 12 65 3z"/>
<path d="M4635 5662 c-2 -3 25 -37 62 -76 36 -39 77 -88 91 -108 29 -44 49
-49 54 -13 l3 25 45 -36 c64 -51 217 -144 236 -144 11 0 14 5 10 16 -3 9 -9
32 -12 52 l-5 37 75 29 c42 16 76 34 76 42 0 8 -20 15 -57 19 -172 18 -283 39
-283 55 0 3 16 14 35 23 46 22 44 35 -7 41 -24 3 -105 14 -181 24 -75 10 -139
16 -142 14z m189 -47 c54 -7 100 -16 103 -19 3 -2 -10 -12 -28 -22 -30 -15
-32 -17 -15 -30 21 -15 138 -43 211 -50 112 -11 123 -24 43 -46 -34 -10 -52
-20 -51 -29 1 -8 5 -26 9 -41 4 -18 2 -28 -4 -28 -15 0 -168 105 -215 146 -42
38 -52 41 -61 17 -6 -14 -17 -6 -61 42 -30 33 -54 63 -55 68 0 9 7 9 124 -8z"/>
<path d="M7636 5632 c-3 -5 -2 -174 1 -376 6 -360 7 -368 27 -382 30 -19 446
-174 468 -174 17 0 18 20 18 369 0 288 -3 371 -13 379 -13 11 -473 192 -488
192 -4 0 -10 -4 -13 -8z m234 -99 c91 -36 184 -72 208 -81 l42 -16 0 -328 c0
-180 -3 -328 -7 -328 -7 0 -232 88 -343 133 l-55 23 -6 119 c-4 66 -7 209 -8
318 -1 142 -4 197 -13 197 -16 0 -3 -641 13 -651 7 -4 103 -42 215 -85 183
-71 228 -94 206 -107 -7 -5 -439 157 -450 168 -4 4 -8 166 -10 362 l-4 355 23
-7 c13 -4 98 -37 189 -72z"/>
<path d="M3560 5498 c0 -8 18 -32 41 -53 22 -22 63 -68 91 -103 49 -61 68 -70
68 -31 0 10 2 19 5 19 2 0 37 -25 77 -55 75 -56 176 -115 198 -115 9 0 11 10
6 33 -12 66 -11 71 9 75 40 8 136 55 132 66 -2 6 -55 16 -118 23 -129 14 -214
33 -214 48 0 6 15 17 32 25 18 8 31 20 29 25 -1 6 -32 13 -67 17 -76 8 -211
27 -256 35 -24 4 -33 2 -33 -9z m200 -39 c76 -10 91 -14 76 -23 -47 -29 -52
-35 -36 -46 21 -13 172 -47 248 -56 74 -8 76 -21 6 -44 -27 -9 -48 -20 -47
-26 1 -5 5 -22 8 -37 5 -20 3 -27 -7 -27 -19 0 -175 105 -221 148 -37 36 -39
36 -53 18 -13 -19 -16 -17 -64 35 -54 60 -63 84 -27 76 12 -3 65 -11 117 -18z"/>
<path d="M4654 5332 c-97 -93 -349 -333 -513 -488 -30 -28 -50 -54 -44 -57 9
-5 683 623 691 645 2 4 -2 8 -10 8 -7 -1 -63 -49 -124 -108z"/>
<path d="M3182 5102 c-43 -36 -117 -102 -167 -146 -49 -44 -92 -81 -94 -82 -1
-2 0 -7 3 -13 4 -6 77 52 167 132 88 78 166 143 174 145 7 2 29 -4 49 -12 31
-13 36 -20 37 -48 2 -108 35 -418 44 -416 12 3 11 24 -11 273 -9 105 -19 193
-23 197 -4 4 -28 14 -55 22 l-48 15 -76 -67z"/>
<path d="M6714 5083 c3 -21 10 -103 17 -182 l11 -144 -533 -533 c-293 -293
-530 -537 -526 -541 4 -4 245 230 535 520 290 290 530 527 534 527 4 0 285
-111 625 -246 340 -135 639 -254 666 -265 36 -14 47 -16 47 -6 0 8 -43 30 -97
52 -185 72 -1171 465 -1197 477 -32 14 -32 13 -47 216 -10 128 -15 162 -27
162 -10 0 -12 -9 -8 -37z"/>
<path d="M3150 4944 c-63 -58 -117 -113 -119 -122 -3 -14 -1 -14 17 -1 11 7
64 54 117 103 53 50 99 85 104 80 4 -5 13 -76 20 -159 6 -82 16 -154 21 -159
13 -13 13 36 0 184 -13 152 -19 180 -33 179 -7 0 -64 -48 -127 -105z"/>
<path d="M1990 4484 c-239 -223 -436 -413 -438 -420 -3 -13 161 -98 398 -207
30 -13 212 -100 404 -191 193 -92 356 -164 364 -161 40 15 -10 45 -335 198
-188 89 -341 165 -340 168 3 9 118 101 122 97 2 -2 8 -37 14 -78 12 -75 16
-88 27 -77 8 7 -14 179 -24 189 -8 8 -129 -84 -145 -109 -4 -7 -12 -13 -17
-13 -5 0 -80 34 -167 76 -87 42 -175 83 -195 91 -21 8 -38 18 -38 22 0 4 17
23 38 41 20 19 105 97 187 174 481 449 610 572 610 586 0 8 -7 16 -15 18 -8 1
-207 -177 -450 -404z"/>
<path d="M3775 4790 c-4 -6 24 -43 62 -83 37 -40 79 -89 93 -110 27 -40 42
-43 50 -8 5 22 6 22 55 -17 28 -21 90 -63 138 -92 100 -61 116 -59 97 10 -6
23 -8 46 -3 50 4 4 32 15 60 25 29 9 63 25 75 35 29 23 24 25 -107 40 -124 13
-207 32 -212 46 -2 6 10 17 27 24 51 21 37 38 -37 45 -78 8 -250 33 -275 41
-9 3 -19 0 -23 -6z m185 -51 c46 -5 87 -12 90 -15 2 -3 -6 -14 -20 -24 -17
-13 -22 -22 -15 -29 15 -15 117 -40 218 -53 48 -6 86 -16 84 -21 -2 -6 -24
-16 -50 -24 -51 -15 -53 -19 -35 -58 15 -34 6 -40 -32 -20 -42 22 -192 129
-209 149 -15 18 -41 22 -41 6 0 -21 -18 -8 -64 45 -54 62 -56 61 74 44z"/>
<path d="M5341 4433 c7 -10 30 -35 51 -56 21 -21 58 -65 84 -97 46 -59 64 -67
64 -29 0 25 5 24 50 -11 58 -46 211 -140 228 -140 11 0 13 10 8 53 l-7 52 53
18 c59 21 98 43 98 56 0 5 -39 12 -87 16 -110 9 -245 37 -250 51 -2 5 13 18
32 27 20 10 34 21 30 26 -3 5 -36 12 -73 16 -37 4 -111 13 -164 21 -130 19
-134 19 -117 -3z m201 -32 c64 -7 96 -19 72 -28 -6 -2 -20 -10 -30 -18 -18
-13 -17 -15 19 -29 42 -18 144 -41 230 -51 31 -3 57 -10 57 -15 0 -5 -19 -15
-42 -21 -60 -17 -69 -26 -57 -55 12 -33 11 -44 -2 -44 -10 0 -175 104 -189
119 -3 3 -20 20 -38 36 -32 29 -34 29 -48 11 -7 -11 -15 -18 -17 -15 -2 2 -24
29 -50 60 -26 31 -47 60 -47 64 0 4 17 4 37 0 20 -4 67 -10 105 -14z"/>
<path d="M7820 4207 c0 -8 10 -22 21 -33 12 -10 57 -70 101 -131 44 -62 84
-113 89 -113 5 0 12 12 15 28 11 45 15 45 58 4 106 -101 270 -212 287 -195 7
7 5 32 -6 72 -9 34 -13 65 -11 70 3 4 26 11 51 14 64 9 121 35 108 48 -6 6
-52 19 -102 29 -92 19 -291 80 -291 90 0 3 14 13 31 23 45 25 32 41 -42 49
-35 4 -117 18 -183 32 -139 31 -126 29 -126 13z m170 -52 c36 -8 79 -14 97
-15 41 0 51 -17 19 -32 -14 -6 -26 -17 -26 -23 0 -12 208 -83 308 -105 28 -7
52 -16 52 -20 0 -4 -22 -11 -50 -15 -27 -4 -52 -10 -55 -15 -3 -4 2 -27 10
-50 17 -49 19 -70 6 -70 -16 0 -174 121 -239 184 -51 48 -65 57 -72 46 -6 -8
-10 -23 -10 -32 0 -29 -16 -21 -45 25 -15 23 -43 61 -61 84 -19 23 -34 44 -34
47 0 9 29 7 100 -9z"/>
<path d="M2045 4044 c-60 -52 -111 -99 -113 -105 -9 -24 24 -2 127 87 l112 95
42 -14 42 -14 13 -149 c15 -164 18 -182 31 -168 5 5 3 73 -5 154 -7 80 -13
152 -14 162 0 16 -75 49 -109 47 -9 0 -65 -43 -126 -95z"/>
<path d="M6866 3702 c-3 -5 26 -42 64 -82 38 -40 86 -97 107 -126 41 -58 63
-68 63 -30 0 34 14 40 36 15 19 -21 177 -127 257 -173 55 -32 64 -24 48 45
-15 65 -16 64 45 83 61 19 124 53 124 67 0 9 -23 13 -170 29 -96 10 -212 34
-234 47 -5 4 12 17 38 30 54 27 56 47 5 51 -59 5 -333 42 -355 48 -12 3 -24 1
-28 -4z m219 -54 c61 -6 114 -15 119 -19 5 -5 -7 -15 -27 -24 -20 -8 -37 -20
-37 -25 0 -22 164 -65 328 -85 28 -4 52 -11 52 -15 0 -10 -85 -40 -112 -40
-20 0 -23 -21 -7 -51 5 -11 9 -29 7 -40 -3 -18 -13 -14 -93 37 -49 31 -120 80
-156 110 -73 59 -89 65 -89 32 0 -19 -13 -9 -70 52 -38 41 -69 79 -70 84 0 4
10 6 23 2 12 -3 72 -11 132 -18z"/>
<path d="M2790 3339 c-71 -75 -79 -93 -47 -113 15 -9 26 -2 73 52 41 46 62 62
82 62 14 0 84 -27 155 -61 70 -33 135 -58 143 -55 7 3 14 15 14 26 0 18 -25
33 -137 87 -76 36 -155 68 -175 70 -36 5 -41 2 -108 -68z"/>
<path d="M4374 2545 c-3 -8 -4 -19 -2 -26 3 -10 319 -159 338 -159 4 0 13 7
20 16 11 12 11 17 -1 28 -16 15 -323 156 -339 156 -6 0 -13 -7 -16 -15z"/>
<path d="M8416 3033 c-3 -16 -8 -149 -12 -298 -6 -232 -8 -287 -13 -326 -1 -4
-32 -20 -71 -38 -38 -17 -70 -35 -70 -41 0 -17 23 -11 95 28 l70 37 6 165 c4
91 10 240 14 333 4 107 3 167 -4 167 -5 0 -12 -12 -15 -27z"/>
<path d="M6439 2690 c-2 -32 39 -813 47 -888 6 -56 21 -74 78 -88 38 -9 27 8
-19 30 -27 13 -35 23 -35 44 0 15 -5 90 -10 167 -5 77 -16 273 -25 435 -9 162
-20 299 -26 305 -6 5 -9 4 -10 -5z"/>
<path d="M6350 2533 c0 -162 42 -839 53 -849 17 -17 178 -87 184 -81 11 11 -8
24 -87 57 -58 24 -82 40 -85 55 -2 11 -11 169 -19 350 -22 450 -27 525 -37
525 -5 0 -9 -26 -9 -57z"/>
</g>
</svg>
